# xmcd
#
# Track frame offsets: 
#        150
#        30481
#        58542
#        104463
#        119336
#        139873
#        161930
#        192275
#        218336
#        259322
#        311268
#        333451
#
# Disc length: 4776 seconds
#
# Revision: 0
# Processed by: cddbd v1.5.2PL0 Copyright (c) Steve Scherf et al.
# Submitted via: ExactAudioCopy v1.0b3
#
DISCID=aa12a60c
DTITLE=Black Cat Bone - Live At The Pavillon
DYEAR=2013
DGENRE=Blues
TTITLE0=Any Way I Can
TTITLE1=Me And My Man
TTITLE2=Angel Of Mercy
TTITLE3=Telephone Song
TTITLE4=Sinner's Prayer
TTITLE5=I Don't Need No Doctor
TTITLE6=Same Ol' Song
TTITLE7=Your Heart Is As Black As Night
TTITLE8=Asking Around For You
TTITLE9=All That We Were
TTITLE10=Ramblin' On My Mind
TTITLE11=Think It Over
EXTD=
EXTT0=
EXTT1=
EXTT2=
EXTT3=
EXTT4=
EXTT5=
EXTT6=
EXTT7=
EXTT8=
EXTT9=
EXTT10=
EXTT11=
PLAYORDER=
